<svg xmlns="http://www.w3.org/2000/svg" width="164" height="162" viewBox="16 4.5 164 162">
  <path d="m97.58 4.5-81.58 81.16 81.62 80.48 81.69-80.34-81.73-81.3zm0 8.77 72.1 72.79-72.1 70.86-71.8-71 71.8-72.65z" fill="#000"/>
  <path d="m97.58 21.61-64.07 64.19 64.11 63.68 64.84-63.68-64.88-64.19zm0 2.66 61.95 61.53-61.91 61.02-61.45-61.02 61.41-61.53z" fill="#000"/>
  <path d="m113.9 82.57v6.39h10.81v9.06c-3.51 3.12-10.46 5.04-19.3 2.21-1.68 2.52-3.35 4.34-5.87 5.96 10.33 4.58 24.29 3 32.78-4.58v-19.04h-18.42z" fill="#000"/>
  <path d="m113.3 60.62c-15.61 0-26.24 9.55-26.36 24.65-0.05 5.38 1.81 10.57 3.9 12.94 2.14-0.8 4.62-2.42 5.87-4.98-1.07-2.22-1.96-5.06-1.96-8.18 0-9.29 7.49-17.22 18.77-17.22 5.66 0 10.03 1.99 12.93 5.33l5.44-5.33c-4.2-4.45-9.64-7.21-18.59-7.21z" fill="#000"/>
  <path d="m95.47 64.19c-3.42-1.58-6.36-2.56-10.1-2.56h-20.36v46.79h20.59c14.18 0 22.93-10.31 22.93-23.41 0-5.42-1.54-10.26-3.44-13.83-2.71 0.89-5.23 3.31-6.43 5.53 0.85 2.08 1.49 4.55 1.49 7.85 0 8.1-5.21 16.58-15.04 16.58h-12.33v-32.37h12.64c1.76 0 3.39 0.27 4.59 0.79 1.45-2.18 3.21-3.84 5.46-5.37z" fill="#000"/>
</svg>
